# Exported from Wings 3D 1.3.0.1
mtllib wire1.mtl
o cylinder2
#110 vertices, 204 faces
v 0.73400000 5.7469529e-3 1.77256180
v 0.68178136 -0.25676467 1.77824469
v 0.53307525 -0.47931128 1.78306242
v 0.31052083 -0.62801217 1.78628152
v 4.8000000e-2 -0.68022897 1.78741192
v -0.21452083 -0.62801217 1.78628152
v -0.43707525 -0.47931128 1.78306242
v -0.58578136 -0.25676467 1.77824469
v -0.63800000 5.7469529e-3 1.77256180
v -0.58578136 0.26825858 1.76687890
v -0.43707525 0.49080518 1.76206117
v -0.21452083 0.63950607 1.75884207
v 4.8000000e-2 0.69172288 1.75771167
v 0.31052083 0.63950607 1.75884207
v 0.53307525 0.49080518 1.76206117
v 0.68178136 0.26825858 1.76687890
v 0.73400000 -5.7469529e-3 -1.77256180
v 0.68178136 -0.26825858 -1.76687890
v 0.53307525 -0.49080518 -1.76206117
v 0.31052083 -0.63950607 -1.75884207
v 4.8000000e-2 -0.69172288 -1.75771167
v -0.21452083 -0.63950607 -1.75884207
v -0.43707525 -0.49080518 -1.76206117
v -0.58578136 -0.26825858 -1.76687890
v -0.63800000 -5.7469529e-3 -1.77256180
v -0.58578136 0.25676467 -1.77824469
v -0.43707525 0.47931128 -1.78306242
v -0.21452083 0.62801217 -1.78628152
v 4.8000000e-2 0.68022897 -1.78741192
v 0.31052083 0.62801217 -1.78628152
v 0.53307525 0.47931128 -1.78306242
v 0.68178136 0.25676467 -1.77824469
v 0.70789068 -0.13125581 2.8414487e-3
v 0.60742831 -0.37378493 8.0917612e-3
v 0.42179804 -0.55940867 1.2110176e-2
v 0.17926042 -0.65986752 1.4284927e-2
v -8.3260417e-2 -0.65986752 1.4284927e-2
v -0.32579804 -0.55940867 1.2110176e-2
v -0.51142831 -0.37378493 8.0917612e-3
v -0.61189068 -0.13125581 2.8414487e-3
v -0.61189068 0.13125581 -2.8414487e-3
v -0.51142831 0.37378493 -8.0917612e-3
v -0.32579804 0.55940867 -1.2110176e-2
v -8.3260417e-2 0.65986752 -1.4284927e-2
v 0.17926042 0.65986752 -1.4284927e-2
v 0.42179804 0.55940867 -1.2110176e-2
v 0.60742831 0.37378493 -8.0917612e-3
v 0.70789068 0.13125581 -2.8414487e-3
v 4.8000000e-2 0.62801217 -1.78628152
v 4.8000000e-2 0.47931128 -1.78306242
v 4.8000000e-2 0.25676467 -1.77824469
v 4.8000000e-2 -5.7469529e-3 -1.77256180
v 4.8000000e-2 -0.26825858 -1.76687890
v 4.8000000e-2 -0.49080518 -1.76206117
v 4.8000000e-2 -0.63950607 -1.75884207
v 4.8000000e-2 0.63950607 1.75884207
v 4.8000000e-2 0.49080518 1.76206117
v 4.8000000e-2 0.26825858 1.76687890
v 4.8000000e-2 5.7469529e-3 1.77256180
v 4.8000000e-2 -0.25676467 1.77824469
v 4.8000000e-2 -0.47931128 1.78306242
v 4.8000000e-2 -0.62801217 1.78628152
v 0.60742831 0.36803797 -1.78065356
v 0.42179804 0.55366172 -1.78467197
v 0.17926042 0.65412057 -1.78684672
v -8.3260417e-2 0.65412057 -1.78684672
v -0.32579804 0.55366172 -1.78467197
v -0.51142831 0.36803797 -1.78065356
v -0.61189068 0.12550886 -1.77540324
v -0.61189068 -0.13700276 -1.76972035
v -0.51142831 -0.37953188 -1.76447003
v -0.32579804 -0.56515563 -1.76045162
v -8.3260417e-2 -0.66561448 -1.75827687
v 0.17926042 -0.66561448 -1.75827687
v 0.42179804 -0.56515563 -1.76045162
v 0.60742831 -0.37953188 -1.76447003
v 0.70789068 0.12550886 -1.77540324
v 0.70789068 -0.13700276 -1.76972035
v 0.68178136 0.26251162 -5.6828973e-3
v 0.53307525 0.48505823 -1.0500625e-2
v 0.60742831 0.37953188 1.76447003
v 0.31052083 0.63375912 -1.3719728e-2
v 0.42179804 0.56515563 1.76045162
v 4.8000000e-2 0.68597593 -1.4850126e-2
v 0.17926042 0.66561448 1.75827687
v -0.21452083 0.63375912 -1.3719728e-2
v -8.3260417e-2 0.66561448 1.75827687
v -0.43707525 0.48505823 -1.0500625e-2
v -0.32579804 0.56515563 1.76045162
v -0.58578136 0.26251162 -5.6828973e-3
v -0.51142831 0.37953188 1.76447003
v -0.63800000 -1.1709383e-16 0.0000000e+0
v -0.61189068 0.13700276 1.76972035
v -0.58578136 -0.26251162 5.6828973e-3
v -0.61189068 -0.12550886 1.77540324
v -0.43707525 -0.48505823 1.0500625e-2
v -0.51142831 -0.36803797 1.78065356
v -0.21452083 -0.63375912 1.3719728e-2
v -0.32579804 -0.55366172 1.78467197
v 4.8000000e-2 -0.68597593 1.4850126e-2
v -8.3260417e-2 -0.65412057 1.78684672
v 0.31052083 -0.63375912 1.3719728e-2
v 0.17926042 -0.65412057 1.78684672
v 0.53307525 -0.48505823 1.0500625e-2
v 0.42179804 -0.55366172 1.78467197
v 0.68178136 -0.26251162 5.6828973e-3
v 0.60742831 -0.36803797 1.78065356
v 0.73400000 -3.2526065e-17 0.0000000e+0
v 0.70789068 0.13700276 1.76972035
v 0.70789068 -0.12550886 1.77540324
vn 0.82625846 -4.2627006e-2 0.56167597
vn 0.74480779 -0.35579303 0.56451100
vn 0.54875489 -0.61444370 0.56685713
vn 0.26761307 -0.77805467 0.56834337
vn 0.0000000e+0 -0.88770896 0.46040504
vn -0.26761307 -0.77805467 0.56834337
vn -0.54875489 -0.61444370 0.56685713
vn -0.74480779 -0.35579303 0.56451100
vn -0.82625846 -4.2627006e-2 0.56167597
vn -0.78174640 0.27681372 0.55879041
vn -0.61916915 0.55423051 0.55628959
vn -0.36383231 0.74840445 0.55454200
vn -3.8906121e-16 0.97009292 0.24273387
vn 0.36383231 0.74840445 0.55454200
vn 0.61916915 0.55423051 0.55628959
vn 0.78174640 0.27681372 0.55879041
vn 0.82625846 4.2627006e-2 -0.56167597
vn 0.78174640 -0.27681372 -0.55879041
vn 0.61916915 -0.55423051 -0.55628959
vn 0.36383231 -0.74840445 -0.55454200
vn 2.7302541e-17 -0.97009292 -0.24273387
vn -0.36383231 -0.74840445 -0.55454200
vn -0.61916915 -0.55423051 -0.55628959
vn -0.78174640 -0.27681372 -0.55879041
vn -0.82625846 4.2627006e-2 -0.56167597
vn -0.74480779 0.35579303 -0.56451100
vn -0.54875489 0.61444370 -0.56685713
vn -0.26761307 0.77805467 -0.56834337
vn 0.0000000e+0 0.88770896 -0.46040504
vn 0.26761307 0.77805467 -0.56834337
vn 0.54875489 0.61444370 -0.56685713
vn 0.74480779 0.35579303 -0.56451100
vn 0.98078639 -0.19508370 6.3249520e-4
vn 0.83147727 -0.55555585 1.8012085e-3
vn 0.55558169 -0.83145758 2.6957298e-3
vn 0.19509592 -0.98077901 3.1798558e-3
vn -0.19509592 -0.98077901 3.1798558e-3
vn -0.55558169 -0.83145758 2.6957298e-3
vn -0.83147727 -0.55555585 1.8012085e-3
vn -0.98078639 -0.19508370 6.3249520e-4
vn -0.98078639 0.19508370 -6.3249520e-4
vn -0.83147727 0.55555585 -1.8012085e-3
vn -0.55558169 0.83145758 -2.6957298e-3
vn -0.19509592 0.98077901 -3.1798558e-3
vn 0.19509592 0.98077901 -3.1798558e-3
vn 0.55558169 0.83145758 -2.6957298e-3
vn 0.83147727 0.55555585 -1.8012085e-3
vn 0.98078639 0.19508370 -6.3249520e-4
vn 5.3568748e-19 -2.1643103e-2 -0.99976576
vn -2.9228762e-16 -2.1643103e-2 -0.99976576
vn 1.4249177e-16 -2.1643103e-2 -0.99976576
vn -2.8369566e-17 -2.1643103e-2 -0.99976576
vn 2.5377191e-16 -2.1643103e-2 -0.99976576
vn 9.4995563e-17 -2.1643103e-2 -0.99976576
vn 5.3568748e-19 -2.1643103e-2 -0.99976576
vn -3.2041223e-17 2.1643103e-2 0.99976576
vn 7.5298827e-17 2.1643103e-2 0.99976576
vn -4.1432186e-17 2.1643103e-2 0.99976576
vn -3.6108114e-17 2.1643103e-2 0.99976576
vn 6.9054471e-17 2.1643103e-2 0.99976576
vn 0.0000000e+0 2.1643103e-2 0.99976576
vn 0.0000000e+0 2.1643103e-2 0.99976576
vn 0.59097178 0.37947804 -0.71186289
vn 0.39589590 0.57705688 -0.71433311
vn 0.13921565 0.68441579 -0.71567732
vn -0.13921565 0.68441579 -0.71567732
vn -0.39589590 0.57705688 -0.71433311
vn -0.59097178 0.37947804 -0.71186289
vn -0.69476890 0.12286175 -0.70866154
vn -0.69227923 -0.15297466 -0.70522920
vn -0.58496074 -0.40607091 -0.70208785
vn -0.38988425 -0.59867077 -0.69970250
vn -0.13672536 -0.70250839 -0.69841831
vn 0.13672536 -0.70250839 -0.69841831
vn 0.38988425 -0.59867077 -0.69970250
vn 0.58496074 -0.40607091 -0.70208785
vn 0.69476890 0.12286175 -0.70866154
vn 0.69227923 -0.15297466 -0.70522920
vn 0.92388326 0.38267242 -1.2406904e-3
vn 0.70711653 0.70709332 -2.2925192e-3
vn 0.58496074 0.40607091 0.70208785
vn 0.38269244 0.92387095 -2.9953499e-3
vn 0.38988425 0.59867077 0.69970250
vn 4.7165619e-18 0.99999474 -3.2421565e-3
vn 0.13672536 0.70250839 0.69841831
vn -0.38269244 0.92387095 -2.9953499e-3
vn -0.13672536 0.70250839 0.69841831
vn -0.70711653 0.70709332 -2.2925192e-3
vn -0.38988425 0.59867077 0.69970250
vn -0.92388326 0.38267242 -1.2406904e-3
vn -0.58496074 0.40607091 0.70208785
vn -1.00000000 -9.4331025e-18 7.3696113e-20
vn -0.69227923 0.15297466 0.70522920
vn -0.92388326 -0.38267242 1.2406904e-3
vn -0.69476890 -0.12286175 0.70866154
vn -0.70711653 -0.70709332 2.2925192e-3
vn -0.59097178 -0.37947804 0.71186289
vn -0.38269244 -0.92387095 2.9953499e-3
vn -0.39589590 -0.57705688 0.71433311
vn 1.4149686e-17 -0.99999474 3.2421565e-3
vn -0.13921565 -0.68441579 0.71567732
vn 0.38269244 -0.92387095 2.9953499e-3
vn 0.13921565 -0.68441579 0.71567732
vn 0.70711653 -0.70709332 2.2925192e-3
vn 0.39589590 -0.57705688 0.71433311
vn 0.92388326 -0.38267242 1.2406904e-3
vn 0.59097178 -0.37947804 0.71186289
vn 1.00000000 4.3392271e-16 -1.8239788e-18
vn 0.69227923 0.15297466 0.70522920
vn 0.69476890 -0.12286175 0.70866154
g cylinder2_default
usemtl default
s 1
f 1//1 33//33 108//108
f 1//1 59//59 110//110
f 1//1 108//108 109//109
f 2//2 34//34 106//106
f 2//2 60//60 107//107
f 2//2 110//110 60//60
f 3//3 35//35 104//104
f 3//3 61//61 105//105
f 3//3 107//107 61//61
f 4//4 36//36 102//102
f 4//4 62//62 103//103
f 4//4 105//105 62//62
f 5//5 103//103 101//101
f 6//6 62//62 99//99
f 6//6 101//101 62//62
f 7//7 61//61 97//97
f 7//7 99//99 61//61
f 8//8 60//60 95//95
f 8//8 97//97 60//60
f 9//9 59//59 93//93
f 9//9 95//95 59//59
f 10//10 58//58 91//91
f 10//10 93//93 58//58
f 11//11 57//57 89//89
f 11//11 91//91 57//57
f 12//12 56//56 87//87
f 12//12 89//89 56//56
f 13//13 45//45 84//84
f 13//13 87//87 85//85
f 14//14 46//46 82//82
f 14//14 56//56 83//83
f 14//14 85//85 56//56
f 15//15 47//47 80//80
f 15//15 57//57 81//81
f 15//15 83//83 57//57
f 16//16 48//48 79//79
f 16//16 81//81 58//58
f 16//16 109//109 48//48
f 17//17 52//52 77//77
f 17//17 108//108 78//78
f 18//18 78//78 33//33
f 18//18 106//106 76//76
f 19//19 76//76 34//34
f 19//19 104//104 75//75
f 20//20 75//75 35//35
f 20//20 102//102 74//74
f 21//21 37//37 73//73
f 21//21 74//74 36//36
f 21//21 100//100 37//37
f 22//22 38//38 72//72
f 22//22 98//98 38//38
f 23//23 39//39 71//71
f 23//23 96//96 39//39
f 24//24 40//40 70//70
f 24//24 94//94 40//40
f 25//25 41//41 69//69
f 25//25 92//92 41//41
f 26//26 42//42 68//68
f 26//26 90//90 42//42
f 27//27 43//43 67//67
f 27//27 88//88 43//43
f 28//28 44//44 66//66
f 28//28 86//86 44//44
f 29//29 84//84 65//65
f 30//30 65//65 45//45
f 30//30 82//82 64//64
f 31//31 64//64 46//46
f 31//31 80//80 63//63
f 32//32 63//63 47//47
f 32//32 77//77 51//51
f 32//32 79//79 77//77
f 33//33 78//78 108//108
f 33//33 106//106 18//18
f 33//33 110//110 106//106
f 34//34 76//76 106//106
f 34//34 104//104 19//19
f 34//34 107//107 104//104
f 35//35 75//75 104//104
f 35//35 102//102 20//20
f 35//35 105//105 102//102
f 36//36 74//74 102//102
f 36//36 100//100 21//21
f 36//36 103//103 100//100
f 37//37 98//98 73//73
f 37//37 100//100 101//101
f 37//37 101//101 6//6
f 38//38 96//96 72//72
f 38//38 98//98 99//99
f 38//38 99//99 7//7
f 39//39 94//94 71//71
f 39//39 96//96 97//97
f 39//39 97//97 8//8
f 40//40 92//92 70//70
f 40//40 94//94 95//95
f 40//40 95//95 9//9
f 41//41 90//90 69//69
f 41//41 92//92 93//93
f 41//41 93//93 10//10
f 42//42 88//88 68//68
f 42//42 90//90 91//91
f 42//42 91//91 11//11
f 43//43 86//86 67//67
f 43//43 88//88 89//89
f 43//43 89//89 12//12
f 44//44 84//84 66//66
f 44//44 86//86 87//87
f 44//44 87//87 13//13
f 45//45 65//65 84//84
f 45//45 82//82 30//30
f 45//45 85//85 82//82
f 46//46 64//64 82//82
f 46//46 80//80 31//31
f 46//46 83//83 80//80
f 47//47 63//63 80//80
f 47//47 79//79 32//32
f 47//47 81//81 79//79
f 48//48 77//77 79//79
f 48//48 108//108 17//17
f 48//48 109//109 108//108
f 49//49 64//64 50//50 67//67
f 49//49 65//65 30//30
f 49//49 66//66 65//65
f 49//49 67//67 28//28
f 50//50 63//63 51//51 68//68
f 50//50 64//64 31//31
f 50//50 68//68 27//27
f 51//51 63//63 32//32
f 51//51 69//69 26//26
f 51//51 77//77 52//52 69//69
f 52//52 70//70 25//25
f 52//52 78//78 53//53 70//70
f 53//53 71//71 24//24
f 53//53 76//76 54//54 71//71
f 53//53 78//78 18//18
f 54//54 72//72 23//23
f 54//54 75//75 55//55 72//72
f 54//54 76//76 19//19
f 55//55 73//73 22//22
f 55//55 74//74 73//73
f 55//55 75//75 20//20
f 56//56 85//85 87//87
f 56//56 89//89 57//57 83//83
f 57//57 91//91 58//58 81//81
f 58//58 93//93 59//59 109//109
f 58//58 109//109 16//16
f 59//59 95//95 60//60 110//110
f 60//60 97//97 61//61 107//107
f 61//61 99//99 62//62 105//105
f 62//62 101//101 103//103
f 63//63 50//50 31//31
f 64//64 49//49 30//30
f 65//65 66//66 29//29
f 66//66 49//49 28//28
f 66//66 84//84 29//29
f 67//67 50//50 27//27
f 67//67 86//86 28//28
f 68//68 51//51 26//26
f 68//68 88//88 27//27
f 69//69 52//52 25//25
f 69//69 90//90 26//26
f 70//70 53//53 24//24
f 70//70 92//92 25//25
f 71//71 54//54 23//23
f 71//71 94//94 24//24
f 72//72 55//55 22//22
f 72//72 96//96 23//23
f 73//73 74//74 21//21
f 73//73 98//98 22//22
f 74//74 55//55 20//20
f 75//75 54//54 19//19
f 76//76 53//53 18//18
f 77//77 48//48 17//17
f 78//78 52//52 17//17
f 79//79 81//81 16//16
f 80//80 83//83 15//15
f 81//81 47//47 15//15
f 82//82 85//85 14//14
f 83//83 46//46 14//14
f 84//84 44//44 13//13
f 85//85 45//45 13//13
f 86//86 43//43 12//12
f 87//87 86//86 12//12
f 88//88 42//42 11//11
f 89//89 88//88 11//11
f 90//90 41//41 10//10
f 91//91 90//90 10//10
f 92//92 40//40 9//9
f 93//93 92//92 9//9
f 94//94 39//39 8//8
f 95//95 94//94 8//8
f 96//96 38//38 7//7
f 97//97 96//96 7//7
f 98//98 37//37 6//6
f 99//99 98//98 6//6
f 100//100 103//103 5//5
f 101//101 100//100 5//5
f 102//102 105//105 4//4
f 103//103 36//36 4//4
f 104//104 107//107 3//3
f 105//105 35//35 3//3
f 106//106 110//110 2//2
f 107//107 34//34 2//2
f 109//109 59//59 1//1
f 110//110 33//33 1//1
